<svg width="400" height="400" viewBox="0 0 400 400" fill="none" xmlns="http://www.w3.org/2000/svg">
  <path d="M0 80C100 80 100 40 200 40C300 40 300 80 400 80V120C300 120 300 80 200 80C100 80 100 120 0 120V80Z" fill="#3366FF" fill-opacity="0.05"/>
  <path d="M0 160C100 160 100 120 200 120C300 120 300 160 400 160V200C300 200 300 160 200 160C100 160 100 200 0 200V160Z" fill="#3366FF" fill-opacity="0.05"/>
  <path d="M0 240C100 240 100 200 200 200C300 200 300 240 400 240V280C300 280 300 240 200 240C100 240 100 280 0 280V240Z" fill="#3366FF" fill-opacity="0.05"/>
  <path d="M0 320C100 320 100 280 200 280C300 280 300 320 400 320V360C300 360 300 320 200 320C100 320 100 360 0 360V320Z" fill="#3366FF" fill-opacity="0.05"/>
  
  <path d="M0 100C100 100 100 60 200 60C300 60 300 100 400 100V140C300 140 300 100 200 100C100 100 100 140 0 140V100Z" fill="#4AE371" fill-opacity="0.03"/>
  <path d="M0 180C100 180 100 140 200 140C300 140 300 180 400 180V220C300 220 300 180 200 180C100 180 100 220 0 220V180Z" fill="#4AE371" fill-opacity="0.03"/>
  <path d="M0 260C100 260 100 220 200 220C300 220 300 260 400 260V300C300 300 300 260 200 260C100 260 100 300 0 300V260Z" fill="#4AE371" fill-opacity="0.03"/>
  <path d="M0 340C100 340 100 300 200 300C300 300 300 340 400 340V380C300 380 300 340 200 340C100 340 100 380 0 380V340Z" fill="#4AE371" fill-opacity="0.03"/>
</svg>